<svg width="32" height="32" xmlns:xlink="http://www.w3.org/1999/xlink"
    xmlns="http://www.w3.org/2000/svg">
    <defs>
        <radialGradient xlink:href="#prefix__a" id="prefix__b" cx="15.99" cy="15.99" fx="15.99"
            fy="15.99" r="15.982" gradientUnits="userSpaceOnUse"
            gradientTransform="translate(.01 .01)" />
        <linearGradient id="prefix__a">
            <stop offset=".656" stop-color="#fff" stop-opacity="0" />
            <stop offset="1" stop-color="black" stop-opacity="0"/>
        </linearGradient>
    </defs>
    <circle cx="16" cy="16" r="14.747" fill="#fff" paint-order="stroke fill markers" />
    <circle fill="url(#prefix__b)" stroke="black" cx="16" cy="16" r="15.143" stroke-width="1.679" />
    <path
        d="M25.246 13.96l-.49-.857a.165.165 0 00-.226-.06l-1.048.613-1.62-4.472a1.322 1.322 0 00-1.26-.918h-8.961c-.718 0-1.355.463-1.576 1.148l-1.543 4.244-1.05-.612a.165.165 0 00-.226.06l-.49.854a.163.163 0 00.06.223l1.249.728-.3.827a.59.59 0 00-.037.207v7.202c0 .325.244.587.544.587H9.67a.554.554 0 00.53-.461l.159-.78h11.284l.16.78c.055.269.274.461.529.461h1.398c.3 0 .544-.262.544-.587v-7.202a.59.59 0 00-.038-.207l-.3-.827 1.248-.728a.165.165 0 00.062-.223zm-14.374 4.293a.827.827 0 11-.001-1.654.827.827 0 010 1.654zm8.024 1.552a.166.166 0 01-.165.165h-5.46a.166.166 0 01-.166-.165v-1.738c0-.09.075-.165.166-.165h.827c.091 0 .165.074.165.165v.745h3.475v-.745c0-.09.075-.165.166-.165h.827c.09 0 .165.074.165.165zm2.234-1.552a.827.827 0 110-1.654.827.827 0 010 1.654zM9.961 14.055l1.504-4.135.01-.026.009-.027a.165.165 0 01.157-.114h8.844l1.56 4.302z" />
</svg>